<?xml version="1.0" encoding="UTF-8" standalone="no"?>
<svg
   xmlns:dc="http://purl.org/dc/elements/1.1/"
   xmlns:cc="http://creativecommons.org/ns#"
   xmlns:rdf="http://www.w3.org/1999/02/22-rdf-syntax-ns#"
   xmlns:svg="http://www.w3.org/2000/svg"
   xmlns="http://www.w3.org/2000/svg"
   viewBox="0 0 1122.52 264.55066"
   height="264.55066"
   width="1122.52"
   xml:space="preserve"
   id="svg2"
   version="1.1"><metadata
     id="metadata8"><rdf:RDF><cc:Work
         rdf:about=""><dc:format>image/svg+xml</dc:format><dc:type
           rdf:resource="http://purl.org/dc/dcmitype/StillImage" /></cc:Work></rdf:RDF></metadata><defs
     id="defs6"><clipPath
       id="clipPath18"
       clipPathUnits="userSpaceOnUse"><path
         id="path16"
         d="M 0,198.413 H 841.89 V 0 H 0 Z" /></clipPath></defs><g
     transform="matrix(1.3333333,0,0,-1.3333333,0,264.55067)"
     id="g10"><g
       id="g12"><g
         clip-path="url(#clipPath18)"
         id="g14"><g
           transform="translate(370.3398,80.2432)"
           id="g20"><path
             id="path22"
             style="fill:#1d1d1b;fill-opacity:1;fill-rule:evenodd;stroke:none"
             d="m 0,0 0.198,-26.096 c 8.01,-0.641 16.605,-1.091 24.298,0.017 1.666,0.36 3.188,2.319 3.907,4.012 0.14,0.372 0.45,0.458 0.512,0.458 0.07,0.046 0.143,0.077 0.225,0.085 0.19,0.039 0.472,0.039 0.771,-0.105 l 0.429,-0.465 c 0.085,-0.863 -0.038,-1.534 -0.17,-2.042 -0.124,-0.504 -0.287,-1.007 -0.325,-1.494 -0.264,-0.948 -0.705,-1.914 -1.19,-2.813 -0.449,-0.953 -0.98,-1.793 -1.401,-2.486 l -0.419,-0.339 c -7.824,-1.041 -11.945,-0.68 -16.884,-0.205 -4.87,0.451 -10.566,1.004 -21.347,0.377 l -0.317,1.541 c 1.092,0.439 1.494,0.686 1.801,0.887 0.235,0.225 0.364,0.489 0.76,1.19 l 0.889,2.487 0.447,36.58 c 0,8.041 0.514,16.954 0,24.968 0,1.848 -0.663,3.525 -1.965,4.175 -0.313,0.209 -0.704,0.303 -1.173,0.442 -0.225,0.066 -0.453,0.104 -0.713,0.205 -0.267,0.066 -0.514,0.151 -0.774,0.309 l 0.421,1.488 c 5.571,-0.402 11.923,-0.514 17.423,0.426 0.542,0.012 0.814,0 1.286,-0.332 L 7.084,42.808 C 7.053,41.557 6.073,41.182 5.767,41.117 3.765,40.969 1.887,39.807 0.96,38.071 L 0.53,34.883 Z m 104.28,53.155 c -1.128,-1.886 -1.084,-3.719 -0.577,-5.539 0.264,-0.919 0.643,-1.883 1.053,-2.789 0.458,-0.942 0.891,-1.875 1.337,-2.735 3.916,-9.033 22.276,-48.29 27.647,-59 l 31.364,58.082 c 0.729,1.825 1.781,3.653 2.556,5.457 0.733,1.732 1.179,3.472 0.907,5.347 -0.287,0.48 -0.628,0.929 -1.065,1.363 -0.492,0.468 -1.007,0.937 -1.49,1.34 l -0.272,0.43 c 0,0.514 0.093,0.774 0.272,1.018 0.069,0.112 0.166,0.199 0.218,0.291 l 0.285,0.278 0.457,0.14 c 6.166,-1.278 12.487,-0.736 18.614,-0.112 0.365,0 0.779,-0.081 1.051,-0.426 0.112,-0.135 0.19,-0.275 0.217,-0.349 l 0.128,-0.298 -0.066,-0.542 c -0.834,-0.887 -1.675,-1.251 -2.46,-1.569 -0.364,-0.125 -0.79,-0.264 -1.185,-0.396 -0.365,-0.15 -0.748,-0.309 -1.1,-0.515 -2.712,-1.409 -4.757,-3.636 -6.489,-6.158 -1.801,-2.588 -3.272,-5.396 -4.814,-7.898 -12.655,-23.415 -24.646,-45.92 -37.432,-69.009 -0.152,-0.401 -0.616,-0.642 -2.468,-0.754 l -0.817,0.6 c -3.92,10.12 -9.46,18.786 -14.27,28.431 -5.531,-9.572 -10.636,-19.352 -15.825,-28.919 -0.551,-0.482 -1.129,-0.635 -1.73,-0.515 l -2.177,4.244 -21.707,46.659 -11.557,24.654 c -2.309,4.532 -6.841,9.03 -11.659,9.332 0,0 -0.83,0.286 -1.046,0.678 -0.402,0.732 0.187,1.51 1.046,1.875 6.863,0.092 13.91,-0.637 20.417,0.204 0.787,-0.251 1.224,-0.655 1.128,-1.309 -0.017,-0.19 -0.129,-0.355 -0.187,-0.468 -0.055,-0.12 -0.102,-0.198 -0.162,-0.302 -1.221,-1.046 -2.031,-2.006 -2.333,-3.258 l 0.47,-1.723 30.347,-65.322 c 2.176,3.867 8.468,14.936 11.985,21.219 l 0.047,0.612 c -6.253,13.371 -12.416,26.621 -18.613,40.074 -1.871,3.633 -4.579,8.026 -8.757,8.282 -0.747,0.286 -0.961,0.67 -1.015,1.084 v 0.352 l 0.047,0.291 0.704,0.689 c 6.608,-0.111 13.314,-0.623 19.504,0.132 l 0.63,-0.186 c 0.883,-1.162 0.02,-2.011 -0.352,-2.335 -0.19,-0.199 -0.399,-0.345 -0.592,-0.516 -0.195,-0.14 -0.214,-0.216 -0.214,-0.216 m 130.074,-84.119 -0.469,-0.43 c -4.074,-0.237 -7.945,0.43 -11.918,0.206 l -5.61,-0.285 -0.663,1.338 c 1.06,1.467 1.891,2.75 1.891,4.373 -0.53,2.491 -1.375,4.787 -2.334,7.118 -0.885,2.251 -1.884,4.514 -2.72,6.764 l -0.248,0.116 -34.133,-0.217 -0.159,-0.225 c -0.957,-2.281 -1.998,-4.523 -2.908,-6.805 -0.914,-2.281 -1.708,-4.562 -2.17,-6.926 -0.193,-1.569 0.164,-2.858 1.201,-4.094 l -0.607,-1.289 c -1.815,0.052 -3.817,0.224 -5.769,0.244 -1.974,0.054 -3.897,0.037 -5.794,-0.225 -0.279,0 -0.395,-0.019 -0.562,-0.032 -0.263,-0.061 -0.476,-0.14 -0.728,-0.186 -0.468,-0.112 -1.402,-0.192 -1.971,0.684 l 0.356,1.168 c 2.355,1.093 4.752,2.189 6.201,4.122 l 2.46,3.85 7.142,15.633 21.142,48.248 0.608,1.428 c 1.188,0.373 1.793,0.244 1.886,-0.356 9.721,-22.799 19.368,-45.307 28.904,-67.878 1.076,-2.528 3.698,-4.342 6.064,-4.44 l 0.551,-0.231 c 0.217,-0.291 0.317,-0.488 0.418,-0.74 0.105,-0.262 0.105,-0.608 -0.061,-0.933 m -38.162,59.433 -0.248,0.527 -13.866,-31.9 -1.534,-3.519 29.489,-0.007 z M 250.951,0 l 0.208,-26.096 c 8.007,-0.641 16.591,-1.091 24.276,0.017 1.649,0.36 3.214,2.319 3.936,4.058 0.138,0.326 0.452,0.412 0.483,0.412 0.059,0.046 0.159,0.077 0.246,0.085 0.176,0.039 0.482,0.039 0.766,-0.105 l 0.445,-0.465 c 0.074,-0.863 -0.027,-1.534 -0.232,-2.042 -0.087,-0.504 -0.237,-1.007 -0.292,-1.494 -0.243,-0.948 -0.687,-1.914 -1.169,-2.813 -0.475,-0.953 -0.992,-1.793 -1.41,-2.486 l -0.431,-0.339 c -7.819,-1.041 -11.945,-0.68 -16.88,-0.205 -4.868,0.451 -10.543,1.004 -21.35,0.377 l -0.313,1.541 c 1.073,0.439 1.522,0.686 1.789,0.887 0.229,0.225 0.38,0.489 0.767,1.19 l 0.898,2.487 0.431,36.58 c 0,8.041 0.515,16.954 0,24.968 0,1.848 -0.655,3.525 -1.953,4.175 -0.321,0.209 -0.669,0.303 -1.139,0.442 -0.262,0.066 -0.48,0.104 -0.709,0.205 -0.271,0.066 -0.546,0.151 -0.804,0.309 l 0.417,1.488 c 5.59,-0.402 11.92,-0.514 17.403,0.426 0.555,0.012 0.846,0 1.33,-0.332 l 0.364,-0.462 c -0.015,-1.251 -0.992,-1.626 -1.31,-1.691 -1.99,-0.148 -3.857,-1.31 -4.83,-3.046 l -0.409,-3.188 z m 48.1,10.151 c 9.04,8.461 17.245,18.132 25.79,27.08 1.278,1.727 2.204,3.289 1.82,4.993 0,0 0.159,0.48 0.384,0.677 0.103,0.152 0.421,0.284 0.421,0.284 4.606,0 9.216,0.324 13.945,0.324 l 0.806,-0.735 c 0.066,-1.534 -1.09,-1.805 -1.852,-1.833 -0.279,0 -0.628,0.028 -1,0.028 -0.282,0 -0.437,-0.028 -0.535,-0.032 -1.643,-0.205 -2.924,-0.913 -4.128,-1.835 -0.608,-0.5 -1.229,-1.031 -1.785,-1.605 -0.621,-0.595 -1.201,-1.223 -1.778,-1.792 -8.077,-7.634 -15.312,-15.675 -22.94,-23.663 l 34.11,-36.305 c 2.924,-3.029 6.057,-4.9 10.153,-4.797 1.401,-0.823 1.294,-0.257 0.166,-1.936 l -10.564,0.225 c -4.139,1.039 -7.888,3.154 -11.298,6.356 l -22.065,23.978 c -2.902,3.346 -6.117,6.832 -9.546,8.626 l -0.104,-29.818 c 0.205,-1.313 0.299,-2.739 0.647,-4.075 0.379,-1.271 0.934,-2.344 1.971,-3.075 0.214,-0.035 0.438,-0.09 0.718,-0.183 l 0.471,-0.098 c 0.156,-0.056 0.326,-0.103 0.538,-0.165 l -0.336,-1.646 -16.43,-0.125 -0.346,1.572 c 0.888,0.308 1.824,0.517 2.673,0.896 0.721,0.275 1.281,0.674 1.654,1.271 l 0.396,2.499 0.317,21.648 v 32.397 c -0.199,2.13 0.085,4.749 -0.249,7.033 -0.324,2.151 -1.154,3.723 -3.532,4.339 l -0.371,0.17 c -0.02,0.055 -0.079,0.062 -0.121,0.062 l -0.143,0.078 c -0.093,0.038 -0.166,0.066 -0.249,0.148 -0.15,0.123 -0.375,0.34 -0.375,0.739 0,0.675 0.43,1.083 0.934,1.197 0.197,0.03 0.348,0.03 0.457,0.03 h 0.309 c 4.479,-0.449 9.703,-0.552 14.01,0.093 0.3,0.009 0.489,0.009 0.667,0 0.067,0 0.197,0 0.353,-0.05 0.104,-0.073 0.263,-0.127 0.394,-0.267 0.215,-0.442 0.3,-0.891 0.132,-1.386 l -0.387,-0.356 c -1.867,-0.729 -3.897,-2.371 -3.897,-4.293 l -0.205,-20.412 z m -548.483,33.463 c -0.168,-0.438 -0.233,-0.728 -0.299,-1.031 -0.066,-0.344 -0.124,-0.689 -0.171,-1.026 -0.115,-0.728 -0.344,-1.579 -1.065,-2.307 -0.762,-0.373 -1.383,-0.292 -1.755,0.212 -0.224,0.345 -0.256,0.709 -0.256,0.926 0.117,3.672 -2.322,7.003 -5.63,9.048 -10.049,5.675 -25.352,5.872 -36.222,1.356 -11.236,-3.881 -18.723,-15.87 -19.656,-27.68 -1.074,-15.66 2.316,-30.39 13.777,-41.227 9.947,-9.104 25.378,-10.409 38.37,-6.888 5.655,1.55 11.372,6.6 12.72,12.348 0.485,0.663 0.879,0.891 1.283,1.047 0.324,0.1 0.976,0.197 1.437,-0.291 0.692,-1.035 0.562,-1.941 0.403,-2.701 -0.098,-0.337 -0.198,-0.666 -0.299,-1.009 -0.104,-0.319 -0.171,-0.56 -0.186,-0.784 -1.433,-3.757 -2.2,-7.235 -3.594,-10.414 -19.957,-7.822 -47.291,-7.69 -62.54,8.986 l -2.887,3.439 -0.812,0.41 c -8.868,13.515 -10.718,34.768 -2.94,49.316 8.854,16.881 26.594,25.046 45.655,23.217 4.397,-0.394 8.507,-1.332 12.542,-2.432 4.048,-1.139 7.995,-2.441 12.089,-3.609 l 0.567,-0.737 c 0.104,-1.321 0.038,-2.657 -0.117,-4.083 -0.116,-1.34 -0.317,-2.668 -0.414,-4.086 m 77.932,-74.578 -0.464,-0.43 c -4.087,-0.237 -7.953,0.43 -11.911,0.206 l -5.632,-0.285 -0.636,1.338 c 1.023,1.467 1.868,2.75 1.883,4.373 -0.538,2.491 -1.37,4.787 -2.335,7.118 -0.914,2.251 -1.886,4.514 -2.708,6.764 l -0.271,0.116 -34.149,-0.217 -0.166,-0.225 c -0.926,-2.281 -1.979,-4.523 -2.897,-6.805 -0.906,-2.281 -1.689,-4.562 -2.166,-6.926 -0.171,-1.569 0.202,-2.858 1.233,-4.094 l -0.674,-1.302 c -1.782,0.065 -3.738,0.237 -5.74,0.257 -1.926,0.054 -3.914,0.037 -5.772,-0.225 -0.271,0 -0.403,-0.019 -0.574,-0.032 -0.225,-0.061 -0.483,-0.14 -0.711,-0.186 -0.504,-0.112 -1.431,-0.192 -2,0.684 l 0.012,0.506 0.328,0.662 c 2.417,1.093 4.754,2.189 6.229,4.122 l 2.464,3.85 7.13,15.633 21.176,48.248 0.59,1.316 c 0.421,-0.101 1.44,0.968 1.89,-0.476 9.729,-22.795 19.381,-45.075 28.911,-67.646 1.077,-2.528 3.688,-4.342 6.058,-4.44 l 0.538,-0.231 c 0.205,-0.291 0.345,-0.488 0.45,-0.74 0.046,-0.262 0.081,-0.608 -0.086,-0.933 m -38.18,59.433 -0.233,0.527 -13.873,-31.9 -1.504,-3.519 29.469,-0.007 z m 53.895,2.208 c -0.011,-5.648 -0.197,-16.434 -0.256,-27.218 -0.07,-12.206 0.059,-24.388 0.675,-28.927 0.103,-1.096 1.153,-2.076 2.292,-2.765 0.113,-0.02 0.252,-0.094 0.449,-0.17 0.178,-0.02 0.404,-0.04 0.635,-0.121 0.458,-0.144 1.081,-0.271 1.581,-0.767 l 0.108,-1.178 -0.821,-0.627 c -5.383,0.43 -13.122,0.225 -15.319,-0.092 l -0.849,0.522 c -0.262,0.635 0.063,1.147 0.435,1.41 0.293,0.233 0.685,0.387 0.983,0.477 0.318,0.111 0.682,0.205 0.973,0.336 0.337,0.04 0.507,0.116 0.562,0.19 1.918,0.961 2.475,2.739 2.475,4.616 l 0.638,61.314 c -1.084,1.835 -3.153,3.129 -5.132,3.497 -0.561,0.243 -0.934,0.561 -0.934,1.112 0,0.101 0,0.139 0.023,0.245 v 0.103 c 0,0 0.295,0.449 0.517,0.624 0.309,0.244 0.847,0.356 0.847,0.356 4.661,-0.429 9.398,-0.429 13.682,0.399 l 0.929,-0.538 c 0.187,-0.813 -0.128,-1.368 -0.306,-1.701 -0.112,-0.116 -0.178,-0.244 -0.253,-0.395 -0.057,-0.101 -0.065,-0.139 -0.065,-0.17 -0.258,-1.449 -0.027,-2.607 0.728,-3.712 l 44.2,-51.415 0.209,47.074 c -0.078,0.69 -0.096,1.364 -0.185,2.019 -0.024,0.673 -0.132,1.285 -0.271,1.905 -0.284,1.146 -0.786,2.091 -1.86,2.812 -0.263,0.217 -0.395,0.279 -0.534,0.348 -0.217,0.074 -0.504,0.159 -0.705,0.206 -0.28,0.093 -0.589,0.158 -0.93,0.306 -0.333,0.185 -0.647,0.372 -0.938,0.693 0,0 0,0.887 0.346,1.217 0.259,0.277 0.871,0.421 0.871,0.421 4.818,-0.224 10.102,-0.309 14.607,0.419 0,0 0.534,-0.186 0.747,-0.476 0.384,-0.543 0.384,-1.228 -0.174,-1.685 -0.191,-0.167 -0.349,-0.26 -0.481,-0.334 -0.112,-0.038 -0.182,-0.038 -0.239,-0.066 -1.46,-0.368 -2.693,-0.925 -3.386,-2.009 -0.801,-2.337 -0.972,-4.564 -1.006,-6.934 -0.021,-2.44 0.112,-4.947 -0.121,-7.731 l 0.023,-2.057 -0.446,-51.634 v -0.29 c 0,-0.107 0,-0.262 0.046,-0.383 0,-0.232 0.02,-0.979 -0.654,-1.325 l -1.196,0.241 -24.152,28.594 c -9.76,11.12 -18.843,22.403 -28.368,33.264 m 139.195,-61.641 -0.472,-0.43 c -4.103,-0.237 -7.934,0.43 -11.907,0.206 l -5.679,-0.285 -0.6,1.338 c 1.072,1.467 1.878,2.75 1.878,4.373 -0.534,2.491 -1.371,4.787 -2.328,7.118 -0.894,2.251 -1.894,4.514 -2.719,6.764 l -0.271,0.116 -34.117,-0.217 -0.174,-0.225 c -0.937,-2.281 -1.963,-4.523 -2.901,-6.805 -0.902,-2.281 -1.689,-4.562 -2.151,-6.926 -0.17,-1.569 0.163,-2.858 1.225,-4.094 l -0.655,-1.289 c -1.831,0.052 -3.765,0.224 -5.756,0.244 -1.943,0.054 -3.916,0.037 -5.806,-0.225 -0.28,0 -0.364,-0.019 -0.569,-0.032 -0.225,-0.061 -0.458,-0.14 -0.701,-0.186 -0.504,-0.112 -1.437,-0.192 -1.972,0.684 l 0.321,1.168 c 2.43,1.093 4.784,2.189 6.24,4.122 l 2.44,3.85 7.151,15.633 21.142,48.248 0.542,1.428 c 1.124,0.104 1.765,-0.038 1.917,-0.356 9.745,-22.799 19.413,-45.307 28.958,-67.878 1.06,-2.528 3.691,-4.342 6.054,-4.44 l 0.527,-0.231 c 0.213,-0.291 0.345,-0.488 0.452,-0.74 0.06,-0.262 0.079,-0.608 -0.069,-0.933 m -38.165,59.433 -0.236,0.527 -13.878,-31.9 -1.507,-3.519 29.453,-0.007 z m 450.933,44.579 8.234,-19.537 -3.711,-8.56 h -1.677 l -3.289,7.905 c -4.403,-4.318 -9.396,-7.905 -17.078,-7.905 h -0.325 c -3.521,0 -6.786,1.091 -9.346,3.056 -4.246,3.056 -6.748,6.937 -6.748,11.085 0,4.625 3.092,8.832 8.177,12.132 2.383,1.568 5.231,2.522 8.208,2.58 1.619,0 3.184,-0.291 4.632,-0.756 v -1.19 c -1.383,0.555 -2.877,0.822 -4.477,0.822 -4.559,-0.066 -6.027,-2.634 -6.027,-9.354 v -7.073 c 0,-8.134 2.115,-10.137 5.999,-10.151 7.359,0.014 12.163,3.589 16.501,7.859 l -7.909,19.087 z m 4.438,0 h 8.817 l 2.284,-5.396 c 1.619,0.57 3.401,0.973 5.369,1.132 1.397,0.138 2.719,0.12 4.028,-0.058 l -0.457,-1.074 c -1.132,0.132 -2.294,0.167 -3.503,0.039 -1.812,-0.143 -3.468,-0.546 -5.008,-1.112 l 4.894,-11.627 5.456,12.418 0.445,1.062 2.012,4.616 h 1.228 l -2.154,-4.88 c 2.646,-0.748 5,-2.019 7.236,-3.598 -0.532,-0.047 -1.055,-0.152 -1.55,-0.364 -1.929,1.281 -3.958,2.277 -6.116,2.885 l -9.645,-22.14 h -1.671 z" /></g></g></g></g></svg>